<?xml version="1.0" encoding="utf-8"?>
<!-- Generator: Adobe Illustrator 27.9.0, SVG Export Plug-In . SVG Version: 6.00 Build 0)  -->
<svg version="1.1" id="grid" xmlns="http://www.w3.org/2000/svg" xmlns:xlink="http://www.w3.org/1999/xlink" x="0px" y="0px"
	 width="32px" height="32px" viewBox="0 0 32 32" style="enable-background:new 0 0 32 32;" xml:space="preserve">
<style type="text/css">
	.st0{fill:#616161;}
</style>
<g>
	<polygon class="st0" points="17,16 17,21 12,21 12,23 17,23 17,28 19,28 19,23 24,23 24,21 19,21 19,16 	"/>
	<path class="st0" d="M26,0H13.03h-2H11L4,7v23c0,1.1,0.9,2,2,2h20c1.1,0,2-0.9,2-2V2C28,0.9,27.1,0,26,0z M11.03,2.8V7h-4.2
		L11.03,2.8z M26,30H6V9h5.03c1.1,0,2-0.9,2-2V2H26V30z"/>
</g>
</svg>
