<?xml version="1.0" encoding="utf-8"?>
<!-- Generator: Adobe Illustrator 27.9.0, SVG Export Plug-In . SVG Version: 6.00 Build 0)  -->
<svg version="1.1" id="grid" xmlns="http://www.w3.org/2000/svg" xmlns:xlink="http://www.w3.org/1999/xlink" x="0px" y="0px"
	 width="32px" height="32px" viewBox="0 0 32 32" style="enable-background:new 0 0 32 32;" xml:space="preserve">
<style type="text/css">
	.st0{fill:#616161;}
</style>
<g>
	<path class="st0" d="M19.29,17.37c1.97,0.67,2.77,1.33,2.77,2.3c0,1.05-1.03,1.73-2.61,1.73c-1.86,0-3.36-0.67-4.09-1.07
		l-0.27-0.15l-0.88,2.83l0.16,0.1c0.99,0.61,2.64,1.05,4.26,1.13v2.42h2.71v-2.6c2.78-0.5,4.56-2.31,4.56-4.68
		c0-2.31-1.36-3.77-4.54-4.88c-2.38-0.88-3.1-1.4-3.1-2.22c0-0.94,0.87-1.51,2.32-1.51c1.65,0,2.76,0.48,3.43,0.77l0.4,0.17
		l0.88-2.78l-0.2-0.09C24,8.34,22.86,8.07,21.51,8.01V5.67H18.8v2.5c-2.69,0.52-4.35,2.21-4.35,4.47
		C14.45,15.37,16.9,16.56,19.29,17.37z"/>
	<path class="st0" d="M30,0H5C3.9,0,3,0.9,3,2v28c0,1.1,0.9,2,2,2h25c1.1,0,2-0.9,2-2V2C32,0.9,31.1,0,30,0z M5,2h3v28H5V2z M30,30
		H10V2h20V30z"/>
</g>
</svg>
