<?xml version="1.0" encoding="utf-8"?>
<!-- Generator: Adobe Illustrator 27.9.0, SVG Export Plug-In . SVG Version: 6.00 Build 0)  -->
<svg version="1.1" id="grid" xmlns="http://www.w3.org/2000/svg" xmlns:xlink="http://www.w3.org/1999/xlink" x="0px" y="0px"
	 width="32px" height="32px" viewBox="0 0 32 32" style="enable-background:new 0 0 32 32;" xml:space="preserve">
<style type="text/css">
	.st0{fill:#616161;}
</style>
<g>
	<path class="st0" d="M13.48,32l-2.8-2.8l1.69-5.08l-4.5-4.5L2.8,21.31L0,18.51l4.9-8.59l7.37-0.36c1.22-1.42,5.96-6.75,9.89-8.32
		c4.01-1.61,8.39-1.22,8.87-1.17l0.81,0.08l0.08,0.81c0.08,0.79,0.4,4.95-1.17,8.87c-1.57,3.93-6.9,8.67-8.32,9.89l-0.36,7.37
		L13.48,32z M12.98,28.66l0.84,0.84l6.3-3.6l0.35-7.15l0.34-0.28c0.06-0.05,6.48-5.4,8.08-9.38c1.09-2.72,1.15-5.65,1.09-7.08
		c-1.42-0.06-4.35,0-7.08,1.09c-3.98,1.59-9.32,8.02-9.38,8.08l-0.28,0.34l-7.14,0.35l-3.6,6.3l0.84,0.84l5.08-1.69l6.25,6.25
		L12.98,28.66z"/>
	<path class="st0" d="M23.34,8.66c-0.88-0.88-0.88-2.3,0-3.18c0.88-0.88,2.3-0.88,3.18,0s0.88,2.3,0,3.18
		C25.64,9.54,24.21,9.54,23.34,8.66z"/>
</g>
</svg>
